<svg xmlns="http://www.w3.org/2000/svg" viewBox="0 0 222 34"><path fill="#d93c31" d="M11.8 15.4h4.5L14 7.9l-2.2 7.5zm89.7-1.1L106.6.2h12v25.9h-7.9V9.8l-5.9 16.4h-6.7l-5.6-15.4v6.9c0 3.3-1.1 5.7-3.2 7.1-2.1 1.4-5.1 2.2-8.5 2.2-3.6 0-6.2-.7-8.3-2.1-2.2-1.4-3.2-3.7-3.2-6.8V8.7h-6.2v17.4H55V8.7H42.9c-1.1-1.9-2.9-2.3-5.1-2.3-4.1 0-6.2 3.2-6.2 7.1 0 3.9 2.2 7.1 6.2 7.1 1.9 0 3.8-.6 5.1-2.4h8.3c-.9 5.6-6.5 8.8-13.5 8.8-4.5 0-8.5-1.9-11.1-5l1.4 4.1h-8.7L17.8 21h-7.5l-1.7 5.1H0L8.6.3h10.7l4.2 12.3C24 5.6 30.2 0 37.8 0c4.7 0 8.6 1.4 10.9 3.9V.3h29v16.2c0 2.5 1.9 3.1 3.2 3.1 1.3 0 3.4-.6 3.4-3.1V.3h12.1l5.1 14zM126.6.2h10.8c2 0 3.7.3 5.2 1s2.7 1.6 3.6 2.8c.9 1.2 1.6 2.6 2.1 4.2s.7 3.3.7 5.1c0 1.8-.2 3.5-.7 5.1-.5 1.6-1.1 3-2.1 4.1-.9 1.2-2.1 2.1-3.6 2.8-1.5.7-3.2 1-5.2 1h-10.8V.2zm4.6 22.4h4.5c1.8 0 3.2-.2 4.4-.7 1.1-.5 2-1.1 2.7-2 .6-.8 1.1-1.8 1.3-3 .2-1.1.3-2.4.3-3.7s-.1-2.5-.3-3.7c-.2-1.1-.7-2.1-1.3-3-.6-.8-1.5-1.5-2.7-2s-2.6-.5-4.4-.5h-4.5v18.6zm19.6-18.4v-4h4.2v3.9h-4.2zm0 22.2V7.5h4.2v18.9h-4.2zm24.7-1c0 2.9-.8 5-2.4 6.4-1.6 1.4-3.9 2.1-6.9 2.1-1 0-1.9-.1-2.9-.3-1-.2-1.8-.5-2.6-1s-1.5-1.1-2-1.8c-.5-.8-.9-1.7-1-2.8h4.2c.1.6.3 1.1.6 1.4.3.4.6.7 1 .9.4.2.8.3 1.3.4.5.1 1 .1 1.5.1 1.7 0 2.9-.4 3.7-1.2.8-.8 1.2-2 1.2-3.6v-3h-.1c-.6 1-1.4 1.9-2.4 2.4-1 .6-2.1.9-3.3.9-1.5 0-2.8-.3-3.9-.8s-1.9-1.2-2.6-2.2c-.7-.9-1.2-2-1.5-3.2-.3-1.2-.5-2.5-.5-3.8 0-1.3.2-2.5.6-3.6.4-1.1.9-2.2 1.7-3 .7-.9 1.6-1.6 2.7-2.1s2.3-.8 3.6-.8c1.2 0 2.3.3 3.3.8s1.8 1.3 2.3 2.4h.1V7.5h4.2v17.9zm-9.3-2.3c.9 0 1.7-.2 2.4-.6.6-.4 1.2-.9 1.6-1.5.4-.6.7-1.3.9-2.1.2-.8.3-1.6.3-2.4 0-.8-.1-1.6-.3-2.3-.2-.8-.5-1.4-.9-2-.4-.6-.9-1-1.6-1.4-.6-.3-1.4-.5-2.3-.5-.9 0-1.7.2-2.3.6-.6.4-1.1.9-1.5 1.5-.4.6-.7 1.3-.8 2.1-.2.8-.3 1.6-.3 2.4 0 .8.1 1.5.3 2.3.2.7.5 1.4.9 2 .4.6.9 1.1 1.5 1.4.5.3 1.2.5 2.1.5zM178 4.2v-4h4.2v3.9H178zm0 22.2V7.5h4.2v18.9H178zm6.2-18.9h3.1V1.8h4.2v5.7h3.8v3.1h-3.8v10.1c0 .4 0 .8.1 1.1 0 .3.1.6.3.8.1.2.3.4.6.5.3.1.6.2 1.1.2h.9c.3 0 .6-.1.9-.1v3.2c-.5 0-.9.1-1.4.1-.4 0-.9.1-1.4.1-1.1 0-2-.1-2.6-.3-.7-.2-1.2-.5-1.6-.9-.4-.4-.6-.9-.8-1.5-.1-.6-.2-1.3-.2-2.1V10.6h-3.1V7.5zm29.2 14.6c0 .5.1.9.2 1.1.1.2.4.3.8.3h.4c.2 0 .4 0 .6-.1v2.9c-.1 0-.3.1-.6.2-.2.1-.5.1-.7.2-.2 0-.5.1-.7.1h-.6c-.9 0-1.6-.2-2.1-.5-.6-.3-.9-.9-1.1-1.8-.8.8-1.8 1.4-3.1 1.8-1.2.4-2.4.5-3.5.5-.9 0-1.7-.1-2.4-.3-.8-.2-1.5-.6-2.1-1s-1.1-1-1.4-1.7c-.4-.7-.5-1.5-.5-2.4 0-1.2.2-2.1.6-2.9.4-.7 1-1.3 1.7-1.7.7-.4 1.5-.7 2.3-.9.9-.2 1.7-.3 2.6-.4.8-.1 1.5-.3 2.2-.3.7-.1 1.3-.2 1.8-.3.5-.1.9-.4 1.2-.7.3-.3.5-.8.5-1.4 0-.5-.1-1-.4-1.3-.3-.3-.6-.6-1-.8-.4-.2-.8-.3-1.3-.4-.5-.1-.9-.1-1.3-.1-1.2 0-2.1.2-2.9.7-.8.5-1.2 1.2-1.3 2.3h-4.2c.1-1.2.4-2.2.9-3 .5-.8 1.2-1.4 2-1.9s1.7-.8 2.7-1c1-.2 2-.3 3.1-.3.9 0 1.8.1 2.7.3.9.2 1.7.5 2.4.9s1.3 1 1.7 1.7c.4.7.7 1.5.7 2.5v9.7zm-4.2-5.2c-.6.4-1.4.7-2.3.7-.9.1-1.9.2-2.8.4-.4.1-.9.2-1.3.3-.4.1-.8.3-1.1.5-.3.2-.6.5-.7.9-.2.4-.3.8-.3 1.4 0 .5.1.9.4 1.2.3.3.6.6 1 .8.4.2.8.3 1.2.4.4.1.9.1 1.2.1.5 0 1-.1 1.5-.2s1-.3 1.5-.6.9-.7 1.2-1.1c.3-.5.5-1 .5-1.7v-3.1zm8.1 9.5V.2h4.2v26.1h-4.2z" /></svg>